<?xml version="1.0"?>
<svg xmlns="http://www.w3.org/2000/svg" xmlns:xlink="http://www.w3.org/1999/xlink" version="1.1" id="Capa_1" x="0px" y="0px" viewBox="0 0 512 512" style="enable-background:new 0 0 512 512;" xml:space="preserve" width="512px" height="512px"><g><g>
	<g>
		<path d="M466.208,227.136c-21.803-21.803-57.28-21.803-79.083,0l-77.781,77.781V53.333C309.344,23.936,285.408,0,256.011,0    s-53.333,23.936-53.333,53.333v251.584l-77.803-77.781c-21.803-21.803-57.28-21.803-79.083,0s-21.803,57.28,0,79.083    l202.667,202.667c2.091,2.069,4.821,3.115,7.552,3.115s5.461-1.045,7.531-3.115l202.667-202.667    C488.011,284.416,488.011,248.939,466.208,227.136z M451.125,291.136L256.011,486.251L60.896,291.115    c-13.483-13.483-13.483-35.435,0-48.917c6.528-6.528,15.211-10.133,24.448-10.133c9.237,0,17.92,3.605,24.448,10.155l96,96    c3.051,3.051,7.659,3.989,11.627,2.304c3.989-1.643,6.592-5.547,6.592-9.856V53.333c0-17.643,14.357-32,32-32s32,14.357,31.979,32    v277.333c0,4.309,2.603,8.213,6.592,9.856c3.989,1.664,8.576,0.747,11.627-2.304l96-96c13.056-13.056,35.861-13.056,48.917,0    C464.608,255.701,464.608,277.653,451.125,291.136z" data-original="#000000" class="active-path" data-old_color="#000000" fill="#FFFFFF"/>
	</g>
</g></g> </svg>
