<?xml version="1.0"?>
<svg xmlns="http://www.w3.org/2000/svg" id="Layer_1" enable-background="new 0 0 512 512" height="512px" viewBox="0 0 512 512" width="512px" class=""><g><path d="m479.493 210.609c1.334-5.908 2.007-11.964 2.007-18.109 0-32.924-19.958-62.569-49.629-75.354-7.154-46.812-47.453-82.146-95.871-82.146-36.12 0-68.568 20.012-85.244 50.687-9.304-11.125-20.299-20.821-32.659-28.707-22.754-14.517-49.107-22.189-76.211-22.189-78.236 0-141.886 63.649-141.886 141.886 0 79.523 71.898 164.747 102.811 197.697 26.358 28.096 55.674 53.778 82.546 72.317 29.352 20.25 53.12 30.518 70.643 30.518 4.809 0 9.405-2.386 12.194-6.292 9.706 3.997 20.135 6.082 30.818 6.082 40.744 0 74.56-30.235 80.188-69.446 24.807-7.076 44.888-25.512 54.06-49.616 43.709-1.719 78.74-37.814 78.74-81.937 0-25.936-12.2-50.023-32.507-65.391zm-238.493 233.039c-26.694-10.363-72.195-42.777-116.311-89.801-59.291-63.2-94.689-129.431-94.689-177.17 0-61.694 50.192-111.886 111.886-111.886 42.025 0 79.697 22.872 99.114 59.927zm199.28-116.672c.146-2.154.22-4.314.22-6.476 0-30.017-14.325-58.704-38.319-76.739-6.625-4.98-16.027-3.644-21.003 2.978-4.978 6.622-3.645 16.025 2.978 21.003 16.496 12.399 26.345 32.122 26.345 52.759 0 13.64-3.888 27.747-12.03 38.955-3.251 4.475-6.931 8.005-11.481 11.066-.687.462-9.234 5.595-9.208 5.7-3.302-13.318-9.927-25.743-19.31-35.877 6.18-1.854 10.686-7.58 10.686-14.363 0-8.284-6.716-15-15-15-24.69 0-46.01 16.756-51.844 40.748-1.957 8.049 2.981 16.161 11.031 18.119 1.19.29 2.383.428 3.556.428 6.759 0 12.896-4.6 14.563-11.459.236-.972.549-1.906.897-2.82.633 1.022 1.383 1.991 2.283 2.867 9.351 9.099 14.917 21.612 15.48 34.613-.07.614-.116 1.233-.109 1.865l.009.645c0 28.128-22.884 51.012-51.012 51.012-10.028 0-19.695-2.9-28.012-8.38 0 0 .01-323.005.217-323.788 7.751-29.341 34.39-49.832 64.783-49.832 18.238 0 35.976 7.561 48.56 20.772 19.841 20.828 23.886 53.98 9.265 78.767-6.94-10.467-16.94-18.843-28.935-23.728-7.669-3.125-16.425.561-19.55 8.233s.562 16.425 8.233 19.55c11.109 4.525 18.979 14.725 20.539 26.619 1.203 9.172 11.091 14.975 19.782 12.148 2.847-.926 4.817-2.766 6.992-4.705 15.338-13.675 25.759-31.824 29.991-51.605 12.669 9.647 20.623 24.892 20.623 41.448 0 6.582-1.21 12.992-3.596 19.05-2.779 7.056.145 15.076 6.813 18.687 16.829 9.115 27.283 26.65 27.283 45.764 0 25.155-17.954 46.191-41.72 50.976z" data-original="#000000" class="active-path" data-old_color="#000000" fill="#FFFFFF"/></g> </svg>
